<?xml version="1.0" encoding="utf-8" ?>
<svg xmlns="http://www.w3.org/2000/svg" xmlns:xlink="http://www.w3.org/1999/xlink" width="759" height="759">
	<path fill="#06162A" transform="matrix(0.741211 0 0 0.741211 0 3.05176e-05)" d="M-0 -0L1024 0L1024 1024L-0 1024L0 -0Z"/>
	<path fill="#323462" transform="matrix(0.741211 0 0 0.741211 0 3.05176e-05)" d="M199.111 97.7147C211.832 96.6847 225.274 97.5073 238.067 97.5128L314.909 97.5694L551.624 97.5945L741.135 97.5068L797.318 97.476C808.163 97.4589 819.492 96.7288 830.25 97.9967C851.084 100.452 872.671 108.391 888.75 122.151C910.05 140.38 924.545 166.977 926.387 195.206C927.292 209.09 926.517 223.416 926.51 237.355L926.48 320.834L926.45 577.856L926.477 750.462L926.49 800.491C926.488 812.109 927.003 823.962 925.467 835.5C922.752 855.886 913.61 875.383 899.944 890.721C880.519 912.524 853.514 925.914 824.327 927.57C808.206 928.796 791.492 927.959 775.307 927.952L686.001 927.937L407.406 927.819L263.997 928.034L224.598 928.037C213.183 928.038 202.001 928.262 190.659 926.741C171.104 924.119 150.3 914.241 135.351 901.406C113.918 883.004 99.7217 855.897 97.8274 827.678C96.8837 813.621 97.6138 799.154 97.6522 785.053L97.8204 705.616L97.7807 455.303L97.6973 275.457L97.6903 223.304C97.6868 212.644 97.0953 201.508 98.4436 190.931C101.123 169.916 109.662 150.129 123.719 134.219C143.068 112.321 170.053 99.541 199.111 97.7147Z"/>
	<path fill="#06162A" transform="matrix(0.741211 0 0 0.741211 0 3.05176e-05)" d="M201.063 120.229L637.754 120.289L767.108 120.283L802.546 120.224C811.942 120.15 821.437 119.684 830.788 120.797C852.132 123.337 873.174 135.288 886.373 152.109C895.97 164.339 902.628 179.799 904.261 195.309C905.604 208.069 904.904 221.499 904.927 234.351L904.995 303.234L905.012 530.052L904.846 739.385L904.671 797.825C904.639 807.641 905.447 818.364 904.164 828.071C901.99 844.52 896.483 859.259 885.978 872.28C870.14 891.914 848.636 902.346 823.838 904.955L769.542 905.13L680.422 905.284L403.557 905.187L270.381 905.305L226.75 905.346C215.965 905.311 205.124 905.587 194.414 904.129C178.225 901.927 161.896 893.948 149.59 883.348C132.129 868.305 121.283 845.726 119.782 822.81C118.877 808.996 119.56 794.675 119.599 780.806L119.898 699.25L119.797 446.84L119.81 274.449L119.764 225.042C119.75 213.431 119.25 201.643 120.845 190.12C123.077 174.006 131.709 158.536 142.423 146.572C157.372 129.879 179.034 121.405 201.063 120.229Z"/>
	<path fill="#28BEB9" transform="matrix(0.741211 0 0 0.741211 0 3.05176e-05)" d="M507.127 206.205L511.024 206.049C519.741 205.897 529.403 207.359 537.375 211.068C542.559 213.48 547.293 216.811 552.117 219.853L570.03 230.975L645.885 278.34L690.558 305.88C699.525 311.456 709.771 316.816 717.323 324.247C727.872 334.627 733.013 349.047 733.125 363.606L733.479 644.554L733.545 728.185L733.522 753.347C733.506 759.746 733.627 766.093 732.676 772.441C730.951 783.957 725.266 795.294 717.037 803.53C709.743 810.829 699.891 816.855 689.75 819.073C680.67 821.059 671.38 820.536 662.152 820.505L630.933 820.476L516.461 820.411L402.278 820.484L368.958 820.496C358.587 820.499 348.321 820.978 338.134 818.627C321.934 814.89 307.457 804.363 298.752 790.255C293.454 781.67 290.08 772.005 289.239 761.929C288.439 752.34 289 742.372 288.999 732.736L289.007 677.447L289.126 503.248L289.08 400.152L289.132 372.191C289.152 365.986 288.688 358.931 290.195 352.891C292.547 343.464 296.43 334.896 302.645 327.332C306.239 322.957 310.553 319.215 315.205 316.012C324.663 309.5 335.055 304.009 344.837 297.975L410.295 257.511L451.183 232.125L470 220.482C474.83 217.485 479.546 214.256 484.658 211.749C491.675 208.307 499.41 206.951 507.127 206.205Z"/>
	<path fill="#06162A" transform="matrix(0.741211 0 0 0.741211 0 3.05176e-05)" d="M509.902 392.204C530.921 391.166 548.253 399.402 564.236 412.317L547.693 428.99C538.757 418.815 528.495 414.133 515.122 412.612L507.407 412.781C495.414 413.795 484.513 419.46 476.766 428.582L460.591 411.782C464.372 409.661 467.702 406.624 471.384 404.293C483.058 396.905 496.149 393.079 509.902 392.204Z"/>
	<path fill="#06162A" transform="matrix(0.741211 0 0 0.741211 0 3.05176e-05)" d="M509.392 356.714C538.052 355.376 568.296 367.177 590.291 385.206L574.357 402.001C571.359 399.914 568.928 396.515 565.815 394.23C551.068 383.405 535.574 378.412 517.535 376.501L512.786 376.457C494.345 376.419 474.232 382.381 459.448 393.621C456.242 396.058 453.396 399.161 450.541 402L434.658 386.382C441.23 381.405 447.591 376.342 454.707 372.122C471.791 361.99 489.797 358.009 509.392 356.714Z"/>
	<path fill="#06162A" transform="matrix(0.741211 0 0 0.741211 0 3.05176e-05)" d="M507.745 722.597C511.9 722.227 515.914 722.395 519.969 723.421C527.981 725.449 535.718 730.737 539.931 737.918C544.407 745.547 546.201 756.097 543.813 764.678L543.572 765.5C542.484 769.403 540.934 772.986 538.559 776.289C533.356 783.525 524.796 787.843 516.171 789.241C509.178 789.867 502.237 788.253 496.235 784.64C487.699 779.501 481.881 771.842 479.614 762.102C477.742 754.06 479.447 745.169 483.836 738.235C489.436 729.387 497.798 724.894 507.745 722.597Z"/>
	<path fill="#06162A" transform="matrix(0.741211 0 0 0.741211 0 3.05176e-05)" d="M509.005 234.655C515.25 234.311 520.554 235.48 526.174 238.232C534.714 242.414 542.575 248.333 550.672 253.319L608.5 289.085L671.256 328.157C679.023 333.066 687.81 337.388 694.996 343.08C699.411 346.577 702.943 352.219 703.509 357.904C704.109 363.921 703.768 370.28 703.78 376.329L703.838 410.585L703.964 521.775L703.857 672.675L703.884 721.785C703.904 730.548 704.35 739.519 703.878 748.25C703.751 750.603 702.859 752.627 701.288 754.376C699.915 755.906 697.968 757.475 695.805 757.523C693.024 757.585 689.508 756.501 687.579 754.448C686.113 752.887 685.16 750.888 685 748.75C684.663 744.231 684.971 739.46 684.991 734.915L685.005 710.535L685.006 628.356L684.895 359.851C683.836 358.48 681.905 357.537 680.457 356.592L669.669 349.748L601.825 307.899L520.471 257.692C519.118 256.893 514.043 253.551 512.75 253.552C512.084 253.553 511.462 253.888 510.818 254.056C504.058 257.106 497.7 261.365 491.43 265.312L472.874 276.668L397.5 323.538L357.043 348.277C352.448 351.147 346.633 353.978 342.68 357.627C340.515 359.625 339.066 362.311 338.738 365.253C338.351 368.73 338.642 372.503 338.656 376.007L338.742 394.799L338.853 457.287L338.766 663.08L338.659 720.686L338.445 755.568C336.752 757.993 334.921 760.33 331.974 761.254C329.18 762.13 326.047 761.491 323.613 759.972C321.558 758.689 319.893 756.743 319.506 754.293C318.687 749.105 319.127 743.388 319.134 738.139L319.185 710.218L319.141 615.147L319.451 444.93L319.467 389.261C319.462 380.465 318.754 371.237 319.476 362.5C319.923 357.086 322.001 351.398 325.254 347.012C327.024 344.624 329.133 342.551 331.613 340.909L355.268 326.641L415.297 289.492L473.001 253.729C480.828 248.882 488.508 243.219 496.544 238.79C500.543 236.587 504.513 235.371 509.005 234.655Z"/>
	<path fill="#06162A" transform="matrix(0.741211 0 0 0.741211 0 3.05176e-05)" d="M510.662 438.142C512.351 438.256 514.541 438.223 516.116 438.866C518.629 439.891 521.073 441.675 523.41 443.062L537.346 451.416L588.086 482.183L641.485 514.75C646.209 517.704 651.627 520.191 656.114 523.408C657.85 524.653 659.589 526.547 660.342 528.575C661.357 531.31 661.224 533.937 659.892 536.532C658.614 539.022 656.07 541.103 653.363 541.858C651.979 542.244 649.923 542.369 648.588 541.785C645.281 540.34 641.997 537.726 638.9 535.821L620.837 525.063L620.636 564.25L620.799 642.017L620.843 670.884C620.845 675.417 621.298 680.544 620.608 685.003C620.282 687.112 618.901 688.939 617.419 690.415C615.716 692.111 613.406 693.39 611.026 693.768C607.843 694.273 604.222 693.957 600.988 693.941L582.479 693.852L513.875 693.849L446.708 693.881L426.324 693.94C422.365 693.949 418.157 694.236 414.227 693.781C411.668 693.486 409.222 692.488 407.315 690.726C406.344 689.829 404.486 687.59 404.063 686.365C403.238 683.979 403.875 678.91 403.883 676.228L403.931 649.253L403.592 524.591L387 534.58C383.36 536.829 379.586 539.826 375.61 541.406C373.59 542.208 371.399 542.231 369.437 541.25C366.866 539.964 365.048 537.92 364.281 535.131C363.529 532.399 363.824 529.078 365.363 526.689C366.193 525.4 367.464 524.244 368.719 523.377C372.174 520.99 375.979 519.009 379.55 516.789L410.668 497.696L472.298 459.75L495.571 445.657C500.271 442.876 505.281 439.294 510.662 438.142Z"/>
	<path fill="#FEF3CE" transform="matrix(0.741211 0 0 0.741211 0 3.05176e-05)" d="M471.841 552.149C476.714 551.574 481.481 552.442 485.756 554.865C490.54 557.578 494.518 562.859 495.784 568.191C497.069 573.609 496.133 579.039 493.136 583.727C489.745 589.031 485.129 592.101 479.035 593.477C473.956 593.977 469.017 593.632 464.484 591.058C459.7 588.341 456.263 583.805 454.881 578.469C453.463 572.995 454.004 567.035 456.961 562.171C460.392 556.527 465.576 553.599 471.841 552.149Z"/>
	<path fill="#FEF3CE" transform="matrix(0.741211 0 0 0.741211 0 3.05176e-05)" d="M546.04 552.117C551.317 551.805 556.21 552.538 560.782 555.31C565.345 558.076 568.476 562.679 569.711 567.835C571.014 573.275 570.071 578.912 567.129 583.688C563.691 589.269 559.208 592.146 552.872 593.628C550.832 593.87 548.959 593.906 546.912 593.685C540.707 593.016 535.593 590.4 531.807 585.402C528.909 581.576 527.1 575.849 527.794 571.024L527.918 570.25C528.415 566.97 529.574 563.981 531.418 561.216C534.916 555.971 539.965 553.319 546.04 552.117Z"/>
</svg>
